HIERARCHY
ROOT hip
{
	OFFSET 0.000000 0.000000 0.000000
	CHANNELS 6 Xposition Yposition Zposition Zrotation Yrotation Xrotation 
	JOINT lhipjoint
	{
		OFFSET 0.000000 0.000000 0.000000
		CHANNELS 3 Zrotation Yrotation Xrotation
		JOINT lfemur
		{
			OFFSET 1.363060 -1.794630 0.839290
			CHANNELS 3 Zrotation Yrotation Xrotation
			JOINT ltibia
			{
				OFFSET 2.448110 -6.726130 0.000000
				CHANNELS 3 Zrotation Yrotation Xrotation
				JOINT lfoot
				{
					OFFSET 2.562200 -7.039590 0.000000
					CHANNELS 3 Zrotation Yrotation Xrotation
					JOINT ltoes
					{
						OFFSET 0.157640 -0.433110 2.322550
						CHANNELS 3 Zrotation Yrotation Xrotation
						End Site
						{
							OFFSET 0.000000 0.000000 0.000000
						}
					}
				}
			}
		}
	}
	JOINT rhipjoint
	{
		OFFSET 0.000000 0.000000 0.000000
		CHANNELS 3 Zrotation Yrotation Xrotation
		JOINT rfemur
		{
			OFFSET -1.305520 -1.794630 0.839290
			CHANNELS 3 Zrotation Yrotation Xrotation
			JOINT rtibia
			{
				OFFSET -2.542530 -6.985550 0.000000
				CHANNELS 3 Zrotation Yrotation Xrotation
				JOINT rfoot
				{
					OFFSET -2.568260 -7.056230 0.000000
					CHANNELS 3 Zrotation Yrotation Xrotation
					JOINT rtoes
					{
						OFFSET -0.164730 -0.452590 2.363150
						CHANNELS 3 Zrotation Yrotation Xrotation
						End Site
						{
							OFFSET 0.000000 0.000000 0.000000
						}
					}
				}
			}
		}
	}
	JOINT lowerback
	{
		OFFSET 0.000000 0.000000 0.000000
		CHANNELS 3 Zrotation Yrotation Xrotation
		JOINT upperback
		{
			OFFSET 0.028270 2.035590 -0.193380
			CHANNELS 3 Zrotation Yrotation Xrotation
			JOINT thorax
			{
				OFFSET 0.056720 2.048850 -0.042750
				CHANNELS 3 Zrotation Yrotation Xrotation
				JOINT lowerneck
				{
					OFFSET 0.000000 0.000000 0.000000
					CHANNELS 3 Zrotation Yrotation Xrotation
					JOINT upperneck
					{
						OFFSET -0.054170 1.746240 0.172020
						CHANNELS 3 Zrotation Yrotation Xrotation
						JOINT head
						{
							OFFSET 0.104070 1.761360 -0.123970
							CHANNELS 3 Zrotation Yrotation Xrotation
							End Site
							{
								OFFSET 0.000000 0.000000 0.000000
							}
						}
					}
				}
				JOINT lclavicle
				{
					OFFSET 0.000000 0.000000 0.000000
					CHANNELS 3 Zrotation Yrotation Xrotation
					JOINT lhumerus
					{
						OFFSET 3.362410 1.200890 -0.311210
						CHANNELS 3 Zrotation Yrotation Xrotation
						JOINT lradius
						{
							OFFSET 4.983000 -0.000000 -0.000000
							CHANNELS 3 Zrotation Yrotation Xrotation
							JOINT lwrist
							{
								OFFSET 3.483560 -0.000000 -0.000000
								CHANNELS 3 Zrotation Yrotation Xrotation
								JOINT lhand
								{
									OFFSET 0.000000 0.000000 0.000000
									CHANNELS 3 Zrotation Yrotation Xrotation
									JOINT lfingers
									{
										OFFSET 0.715260 -0.000000 -0.000000
										CHANNELS 3 Zrotation Yrotation Xrotation
										End Site
										{
											OFFSET 0.000000 0.000000 0.000000
										}
									}
								}
								JOINT lthumb
								{
									OFFSET 0.000000 0.000000 0.000000
									CHANNELS 3 Zrotation Yrotation Xrotation
									End Site
									{
										OFFSET 0.000000 0.000000 0.000000
									}
								}
							}
						}
					}
				}
				JOINT rclavicle
				{
					OFFSET 0.000000 0.000000 0.000000
					CHANNELS 3 Zrotation Yrotation Xrotation
					JOINT rhumerus
					{
						OFFSET -3.136600 1.374050 -0.404650
						CHANNELS 3 Zrotation Yrotation Xrotation
						JOINT rradius
						{
							OFFSET -5.241900 -0.000000 -0.000000
							CHANNELS 3 Zrotation Yrotation Xrotation
							JOINT rwrist
							{
								OFFSET -3.444170 -0.000000 -0.000000
								CHANNELS 3 Zrotation Yrotation Xrotation
								JOINT rhand
								{
									OFFSET 0.000000 0.000000 0.000000
									CHANNELS 3 Zrotation Yrotation Xrotation
									JOINT rfingers
									{
										OFFSET -0.622530 -0.000000 -0.000000
										CHANNELS 3 Zrotation Yrotation Xrotation
										End Site
										{
											OFFSET 0.000000 0.000000 0.000000
										}
									}
								}
								JOINT rthumb
								{
									OFFSET 0.000000 0.000000 0.000000
									CHANNELS 3 Zrotation Yrotation Xrotation
									End Site
									{
										OFFSET 0.000000 0.000000 0.000000
									}
								}
							}
						}
					}
				}
			}
		}
	}
}
MOTION
Frames: 7
Frame Time: 0.008333
0.859592 17.261889 3.053361 179.769821 2.561735 -170.223960 -4.615398 -3.006490 -1.231912 -10.431783 6.645639 -19.385997 2.895725 9.887491 26.440514 0.053487 -12.254066 -7.590193 0.016500 -0.828400 -2.276800 2.432302 2.248088 -1.645697 18.442417 -6.620207 -25.850808 -5.454852 -11.088369 33.033578 0.180710 19.300663 -5.722659 -0.184800 2.768500 -7.635000 8.137145 -1.533707 -2.877198 2.124362 -1.890171 -2.954523 -2.673043 -0.324820 15.245025 -3.305308 -2.810463 -10.126379 -2.206100 0.614285 28.684684 -1.808700 1.481900 7.010200 -5.451387 -2.212302 3.147163 -78.337930 1.719242 26.579465 6.143182 -18.873053 -1.509043 0.411757 0.757261 35.666696 16.380186 -7.509424 -2.474700 -7.125000 0.000000 0.000000 -7.497200 21.261000 4.304600 9.137570 3.747854 4.355430 60.259206 -11.941853 3.475923 -43.118958 53.291441 -20.794259 -0.284558 -1.992186 4.187328 -28.881121 14.167426 -8.854100 7.125000 0.000000 0.000000 -0.650300 -11.337600 -0.509800 
0.868102 17.264218 3.059273 179.712910 2.680154 -170.403546 -4.608135 -3.006394 -1.242310 -10.440361 5.740532 -18.849611 2.922449 9.917499 26.538910 0.151043 -11.218403 -8.375463 0.044000 -1.353800 -3.722900 2.407233 2.270873 -1.675515 18.384462 -6.433584 -25.479690 -5.428954 -11.080683 32.920273 0.158189 19.124858 -5.817478 -0.191500 2.818400 -7.773700 8.296462 -1.523449 -2.689117 2.125946 -1.864392 -2.944552 -2.706582 -0.296470 15.189038 -3.403057 -2.816654 -10.175837 -2.289493 0.641393 28.650723 -1.808000 1.474600 7.025200 -5.452171 -2.212451 3.145148 -78.472838 1.561155 26.172972 6.017611 -18.722233 -1.487015 0.430281 0.740307 36.129263 16.272710 -7.822115 -2.544400 -7.125000 0.000000 0.000000 -7.581300 20.948500 4.407700 9.145620 3.736230 4.348377 60.368467 -11.563421 3.618215 -45.242623 54.215122 -22.244972 -0.272984 -2.043101 3.610660 -29.006386 13.835855 -8.757100 7.125000 0.000000 0.000000 -0.760700 -11.621500 -0.591900 
0.875985 17.266906 3.066619 179.658489 2.799107 -170.592959 -4.605344 -3.000209 -1.252843 -10.424883 4.577281 -18.218031 2.956654 9.955640 26.666807 0.244903 -10.003590 -9.128440 0.064500 -1.638100 -4.506500 2.381815 2.293336 -1.703699 18.335662 -6.304632 -25.132897 -5.400601 -11.069877 32.796169 0.143850 18.985122 -5.846276 -0.190800 2.813400 -7.759800 8.442791 -1.532461 -2.470176 2.138734 -1.857305 -2.940527 -2.676606 -0.283775 15.092737 -3.578217 -2.807454 -10.258945 -2.353471 0.706650 28.669310 -1.780500 1.482900 7.074000 -5.448193 -2.220447 3.139617 -78.670763 1.429931 25.764457 5.913461 -18.601492 -1.470562 0.448225 0.726047 36.657141 16.193026 -8.074087 -2.601000 -7.125000 0.000000 0.000000 -7.644400 20.695300 4.489100 9.156002 3.726046 4.340856 60.382810 -11.136757 3.847566 -47.508676 55.121775 -23.812138 -0.268112 -2.089742 3.012856 -29.094825 13.607310 -8.694200 7.125000 0.000000 0.000000 -0.830000 -11.802500 -0.642700 
0.883420 17.268787 3.074949 179.602161 2.934264 -170.796337 -4.605472 -2.991952 -1.262402 -10.408051 3.340049 -17.577387 2.997634 10.004616 26.834023 0.324883 -8.778531 -9.828718 0.072700 -1.739300 -4.785600 2.356890 2.319180 -1.733978 18.285171 -6.223641 -24.782304 -5.368614 -11.058809 32.662088 0.138078 18.896260 -5.821909 -0.185800 2.776000 -7.655600 8.580739 -1.538431 -2.220810 2.153011 -1.839428 -2.938962 -2.621356 -0.269655 14.970544 -3.774796 -2.803964 -10.368032 -2.425202 0.770514 28.682538 -1.751400 1.486200 7.132400 -5.441089 -2.232419 3.131648 -78.887328 1.273480 25.363681 5.799510 -18.469731 -1.450814 0.465692 0.708835 37.203224 16.044827 -8.319044 -2.641900 -7.125000 0.000000 0.000000 -7.757600 20.455900 4.599000 9.166171 3.717961 4.330639 60.379525 -10.690923 4.109496 -49.980100 56.022967 -25.540811 -0.270418 -2.135401 2.443558 -29.115501 13.467444 -8.650200 7.125000 0.000000 0.000000 -0.840200 -11.897900 -0.649000 
0.890049 17.271116 3.084086 179.553227 3.063306 -171.019002 -4.604707 -2.985316 -1.271974 -10.396857 2.115546 -16.955808 3.045439 10.066790 27.049846 0.385974 -7.575402 -10.408108 0.069700 -1.703700 -4.687600 2.335347 2.345860 -1.764544 18.236372 -6.157529 -24.419568 -5.334420 -11.049601 32.523668 0.133047 18.807331 -5.786892 -0.184600 2.767300 -7.631700 8.769959 -1.513382 -1.935409 2.153769 -1.783949 -2.941293 -2.648008 -0.231109 14.810357 -3.898563 -2.825356 -10.471496 -2.489384 0.796404 28.731656 -1.734600 1.479400 7.204100 -5.437908 -2.248039 3.122393 -79.016840 1.142823 25.173999 5.730777 -18.381028 -1.435866 0.477982 0.692934 37.569501 15.845652 -8.509122 -2.656700 -7.125000 0.000000 0.000000 -7.906600 20.278200 4.720900 9.171015 3.717354 4.316194 60.447707 -10.259230 4.386766 -52.675612 56.905724 -27.446171 -0.274025 -2.187324 1.844525 -29.074788 13.318213 -8.581900 7.125000 0.000000 0.000000 -0.808100 -12.007400 -0.622400 
0.897036 17.273803 3.093582 179.506258 3.190563 -171.235808 -4.608414 -2.974141 -1.276941 -10.386362 0.926555 -16.428521 3.107734 10.152835 27.358524 0.431248 -6.455681 -10.913605 0.065200 -1.647400 -4.532200 2.315894 2.372446 -1.794224 18.189011 -6.141913 -24.076306 -5.296645 -11.036727 32.369515 0.137551 18.767126 -5.676599 -0.173400 2.682500 -7.395900 8.958093 -1.487051 -1.646924 2.155572 -1.727255 -2.951134 -2.670629 -0.196297 14.614195 -4.006010 -2.843915 -10.558563 -2.555580 0.830855 28.792903 -1.722300 1.480400 7.280500 -5.432489 -2.267471 3.111366 -79.129523 1.036252 25.161117 5.692041 -18.327666 -1.423967 0.486278 0.679785 37.775215 15.619443 -8.635659 -2.648200 -7.125000 0.000000 0.000000 -8.074000 20.167500 4.843100 9.177265 3.722783 4.299731 60.499251 -9.828714 4.723996 -55.582638 57.744226 -29.518448 -0.285166 -2.238654 1.273175 -28.936306 13.238966 -8.512400 7.125000 0.000000 0.000000 -0.698700 -12.057900 -0.537400 
0.903754 17.276132 3.104241 179.437592 3.310244 -171.470398 -4.617285 -2.960029 -1.277373 -10.397096 -0.152295 -16.006720 3.184697 10.267083 27.768220 0.458997 -5.481276 -11.280421 0.060000 -1.580100 -4.346700 2.295699 2.404823 -1.828429 18.121152 -6.136402 -23.713556 -5.257284 -11.025352 32.214491 0.139738 18.704065 -5.583279 -0.170800 2.662000 -7.339100 9.099955 -1.490056 -1.344775 2.167670 -1.696033 -2.958746 -2.622166 -0.181506 14.424966 -4.167734 -2.861149 -10.680601 -2.655231 0.893386 28.864797 -1.708000 1.487300 7.373200 -5.423326 -2.284191 3.098515 -79.303080 0.912341 25.177726 5.660599 -18.289333 -1.414147 0.493060 0.670793 37.932025 15.432502 -8.701508 -2.630400 -7.125000 0.000000 0.000000 -8.212200 20.114200 4.937600 9.186035 3.724249 4.286533 60.435908 -9.269830 5.149002 -58.451877 58.454987 -31.575125 -0.303890 -2.282262 0.709783 -28.711294 13.244944 -8.448700 7.125000 0.000000 0.000000 -0.517900 -12.039400 -0.398500 
